<?xml version="1.0" standalone="no"?>
<!DOCTYPE svg PUBLIC "-//W3C//DTD SVG 20010904//EN"
 "http://www.w3.org/TR/2001/REC-SVG-20010904/DTD/svg10.dtd">
<svg version="1.0" xmlns="http://www.w3.org/2000/svg"
 width="800.000000pt" height="800.000000pt" viewBox="0 0 800.000000 800.000000"
 preserveAspectRatio="xMidYMid meet">

<g transform="translate(0.000000,800.000000) scale(0.100000,-0.100000)"
fill="#000000" stroke="none">
<path d="M1280 6640 l0 -80 1000 0 1000 0 0 80 0 80 -1000 0 -1000 0 0 -80z"/>
<path d="M4720 6640 l0 -80 1000 0 1000 0 0 80 0 80 -1000 0 -1000 0 0 -80z"/>
<path d="M4720 6295 l0 -165 1000 0 1000 0 0 165 0 165 -1000 0 -1000 0 0
-165z"/>
<path d="M1280 6270 l0 -160 1000 0 1000 0 0 160 0 160 -1000 0 -1000 0 0
-160z"/>
<path d="M4720 5945 l0 -85 1000 0 1000 0 0 85 0 85 -1000 0 -1000 0 0 -85z"/>
<path d="M1280 5905 l0 -85 1000 0 1000 0 0 85 0 85 -1000 0 -1000 0 0 -85z"/>
<path d="M4720 5600 l0 -160 1000 0 1000 0 0 160 0 160 -1000 0 -1000 0 0
-160z"/>
<path d="M1280 5615 l0 -85 1000 0 1000 0 0 85 0 85 -1000 0 -1000 0 0 -85z"/>
<path d="M1280 5250 l0 -160 1000 0 1000 0 0 160 0 160 -1000 0 -1000 0 0
-160z"/>
<path d="M4720 5250 l0 -80 1000 0 1000 0 0 80 0 80 -1000 0 -1000 0 0 -80z"/>
<path d="M4720 4985 l0 -85 1000 0 1000 0 0 85 0 85 -1000 0 -1000 0 0 -85z"/>
<path d="M1280 4880 l0 -80 1000 0 1000 0 0 80 0 80 -1000 0 -1000 0 0 -80z"/>
<path d="M4720 4630 l0 -160 1000 0 1000 0 0 160 0 160 -1000 0 -1000 0 0
-160z"/>
<path d="M1280 4590 l0 -80 1000 0 1000 0 0 80 0 80 -1000 0 -1000 0 0 -80z"/>
<path d="M3470 3995 l0 -445 40 0 40 0 0 445 0 445 -40 0 -40 0 0 -445z"/>
<path d="M3572 3998 l3 -443 43 -3 42 -3 0 445 0 446 -45 0 -45 0 2 -442z"/>
<path d="M3680 3995 l0 -445 80 0 80 0 0 445 0 445 -80 0 -80 0 0 -445z"/>
<path d="M3860 3994 l0 -445 43 3 42 3 3 443 2 442 -45 0 -45 0 0 -446z"/>
<path d="M3970 3995 l0 -445 40 0 40 0 0 445 0 445 -40 0 -40 0 0 -445z"/>
<path d="M4070 3995 l0 -445 80 0 80 0 0 445 0 445 -80 0 -80 0 0 -445z"/>
<path d="M4260 3995 l0 -446 83 3 82 3 3 443 2 442 -85 0 -85 0 0 -445z"/>
<path d="M4450 3995 l0 -445 40 0 40 0 0 445 0 445 -40 0 -40 0 0 -445z"/>
<path d="M1280 4305 l0 -85 1000 0 1000 0 0 85 0 85 -1000 0 -1000 0 0 -85z"/>
<path d="M4720 4290 l0 -80 1000 0 1000 0 0 80 0 80 -1000 0 -1000 0 0 -80z"/>
<path d="M1280 4015 l0 -85 1000 0 1000 0 0 85 0 85 -1000 0 -1000 0 0 -85z"/>
<path d="M4720 4015 l0 -85 1000 0 1000 0 0 85 0 85 -1000 0 -1000 0 0 -85z"/>
<path d="M4720 3670 l0 -160 1000 0 1000 0 0 160 0 160 -1000 0 -1000 0 0
-160z"/>
<path d="M1280 3650 l0 -160 1000 0 1000 0 0 160 0 160 -1000 0 -1000 0 0
-160z"/>
<path d="M4720 3320 l0 -80 1000 0 1000 0 0 80 0 80 -1000 0 -1000 0 0 -80z"/>
<path d="M1280 3280 l0 -80 1000 0 1000 0 0 80 0 80 -1000 0 -1000 0 0 -80z"/>
<path d="M4720 2975 l0 -165 1000 0 1000 0 0 165 0 165 -1000 0 -1000 0 0
-165z"/>
<path d="M1280 2990 l0 -80 1000 0 1000 0 0 80 0 80 -1000 0 -1000 0 0 -80z"/>
<path d="M1280 2625 l0 -165 1000 0 1000 0 0 165 0 165 -1000 0 -1000 0 0
-165z"/>
<path d="M4720 2625 l0 -85 1000 0 1000 0 0 85 0 85 -1000 0 -1000 0 0 -85z"/>
<path d="M4720 2270 l0 -160 1000 0 1000 0 0 160 0 160 -1000 0 -1000 0 0
-160z"/>
<path d="M1280 2255 l0 -85 1000 0 1000 0 0 85 0 85 -1000 0 -1000 0 0 -85z"/>
<path d="M1280 1890 l0 -160 1000 0 1000 0 0 160 0 160 -1000 0 -1000 0 0
-160z"/>
<path d="M4720 1850 l0 -160 1000 0 1000 0 0 160 0 160 -1000 0 -1000 0 0
-160z"/>
<path d="M1280 1440 l0 -160 1000 0 1000 0 0 160 0 160 -1000 0 -1000 0 0
-160z"/>
<path d="M4720 1440 l0 -160 1000 0 1000 0 0 160 0 160 -1000 0 -1000 0 0
-160z"/>
</g>
</svg>
